<svg width="315" height="349" viewBox="0 0 315 349" fill="none" xmlns="http://www.w3.org/2000/svg">
<g clip-path="url(#clip0_16_1877)">
<path d="M294.926 -158.438C357.508 -149.922 414.266 -117.234 453.039 -67.3781C491.812 -17.5216 509.516 45.5377 502.358 108.289C495.2 171.041 463.75 228.494 414.745 268.338C365.74 308.181 303.079 327.247 240.187 321.451C234.481 320.8 228.875 319.932 223.371 318.848C161.762 307.505 106.974 272.66 70.5775 221.673C34.1814 170.687 19.027 107.55 28.3149 45.5983C37.6029 -16.3536 70.6059 -72.2704 120.354 -110.342C170.102 -148.414 232.699 -165.66 294.926 -158.438Z" fill="url(#paint0_radial_16_1877)"/>
<path d="M298.771 -146.134C340.198 -141.453 379.646 -125.881 413.101 -101.003C446.555 -76.1252 472.823 -42.8288 489.23 -4.50214C505.485 33.0191 511.536 74.1696 506.77 114.782C503.215 145.555 493.634 175.326 478.573 202.396C463.512 229.465 443.267 253.304 418.994 272.55C394.72 291.795 366.894 306.072 337.103 314.564C307.312 323.055 276.141 325.596 245.368 322.041C239.587 321.382 234.094 320.527 228.889 319.477C168.822 308.364 115.422 274.35 79.9569 224.613C44.4916 174.877 29.7353 113.307 38.8019 52.8979C47.8685 -7.51173 80.0488 -62.0365 128.552 -99.1707C177.055 -136.305 238.088 -153.144 298.771 -146.134Z" fill="url(#paint1_radial_16_1877)"/>
<path d="M236.773 320.377C242.066 320.981 247.282 322.261 252.801 322.89C312.773 329.973 373.103 312.959 420.537 275.584C467.97 238.209 498.626 183.532 505.768 123.568C510.391 84.6263 504.619 45.1552 489.04 9.16799C472.949 -27.9675 447.322 -60.1857 414.758 -84.2177C382.194 -108.25 343.852 -123.24 303.624 -127.668C299.119 -128.181 292.014 -125.911 286.933 -126.377C284.343 -126.672 281.64 -126.981 279.05 -127.276C273.306 -127.931 267.633 -127.209 262.002 -127.852C259.133 -128.35 256.238 -128.68 253.33 -128.841C250.74 -129.136 248.233 -128.167 245.63 -128.35C240.134 -127.986 234.613 -128.309 229.197 -129.312C225.67 -130.399 222.484 -132.473 219.57 -128.927C216.655 -125.38 218.296 -125.764 214.937 -124.321C212.653 -123.216 210.478 -121.898 208.441 -120.385C205.396 -117.634 202.06 -115.221 198.494 -113.191C197.818 -113.268 195.672 -111.459 195.109 -111.523C194.546 -111.587 192.586 -113.408 191.032 -112.787C189.997 -109.711 190.3 -106.367 189.94 -103.214C189.58 -100.061 185.047 -99.3226 181.378 -99.1706C179.439 -99.2396 177.545 -99.7687 175.85 -100.714C173.931 -101.163 171.965 -101.387 169.994 -101.382L173.035 -101.035C169.356 -101.974 165.567 -102.406 161.772 -102.32C158.664 -101.164 155.798 -99.4405 153.32 -97.2371C150.558 -94.9234 148.509 -91.8735 147.411 -88.4417C145.482 -83.5279 140.053 -84.9457 135.417 -83.3069C133.697 -82.4701 132.112 -81.382 130.713 -80.0784C126.635 -77.1145 122.328 -74.4775 117.834 -72.1922C109.997 -67.4959 109.747 -63.3031 108.333 -54.9077C106.564 -46.7571 103.399 -38.9738 98.9773 -31.9021C91.7094 -23.3394 87.34 -12.6948 86.4959 -1.49513C88.0296 5.21493 89.1593 12.011 89.879 18.8563C89.0615 24.6254 86.5393 30.0188 82.636 34.3448C74.3712 43.8326 67.7748 54.6531 63.1274 66.3462C59.7682 77.2462 58.0517 88.5859 58.0346 99.9919C58.9581 111.833 61.101 123.547 64.4294 134.948C68.8674 147.754 74.9142 159.945 82.4244 171.227C87.7905 181.194 87.9057 193.187 93.6482 202.855C95.9716 207.334 99.1644 211.305 103.04 214.537C104.627 215.63 106.715 216.325 108.414 217.431C111.141 219.514 113.587 221.94 115.691 224.65C135.057 245.912 138.752 279.533 162.361 296.602C166.258 299.442 188.015 307.742 192.366 309.608C200.729 313.3 209.259 294.535 217.774 297.902C220.195 299.198 222.466 300.758 224.545 302.554C227.07 303.939 229.37 305.702 231.364 307.781C233.421 310.754 233.339 317.476 236.773 320.377Z" fill="url(#paint2_radial_16_1877)"/>
<g style="mix-blend-mode:multiply" opacity="0.2">
<path d="M365.025 -97.8471C354.888 -96.3234 345.184 -92.6884 336.54 -87.1773C329.745 -83.617 323.336 -79.4423 316.654 -75.8691C311.37 -73.3083 306.271 -70.3827 301.394 -67.1136C296.276 -63.2479 288.847 -57.1359 282.263 -61.4237C278.526 -63.6753 277.013 -68.4115 274.557 -71.8861C271.702 -75.3769 268.608 -78.6652 265.298 -81.7271C261.793 -84.5564 257.773 -86.6808 253.461 -87.983C249.232 -90.4661 244.339 -91.5821 239.451 -91.1784C234.943 -90.6658 231.342 -92.1034 227.105 -89.9627C223.781 -87.9368 220.968 -85.174 218.882 -81.8876C215.297 -75.9208 210.386 -70.8594 204.531 -67.0958C201.095 -64.9778 197.263 -64.3881 194.911 -60.7773C193.36 -57.0667 192.447 -53.1208 192.211 -49.106C191.463 -42.2933 188.619 -35.8807 184.071 -30.7535C175.741 -24.7442 163.798 -33.0659 157.288 -23.9969C152.817 -18.4589 149.76 -11.9161 148.382 -4.93313C147.728 6.27687 148.516 17.5244 150.725 28.534C150.968 33.6373 152.673 38.5632 155.637 42.7245C158.601 46.8857 162.699 50.1068 167.443 52.0037C170.564 52.6424 173.779 52.6603 176.907 52.0564C180.845 51.9411 184.752 51.3128 188.529 50.1875C204.944 44.302 213.258 26.4257 222.561 12.8834C225.979 7.91914 231.16 4.44413 237.05 3.16594C242.94 1.88772 249.096 2.90244 254.264 6.00348C260.758 10.7727 266.274 16.7471 270.511 23.601C273.829 27.5162 276.884 31.7436 280.553 35.5848C283.83 38.8055 287.294 41.8293 290.929 44.6405C298.846 51.248 308.297 55.4064 315.786 62.7638C323.131 69.0136 328.702 77.0855 331.941 86.1693C333.17 94.9567 333.304 103.863 332.339 112.683C332.468 120.753 331.853 128.818 330.504 136.775C330.016 141.055 328.202 144.955 327.801 149.473C327.31 153.967 326.421 158.409 325.146 162.746C321.968 172.202 317.334 181.104 311.412 189.131C307.581 194.206 301.972 197.642 295.711 198.749C288.439 199.483 281.118 197.93 274.769 194.307C270.073 190.424 266.647 185.222 264.935 179.374C263.223 173.525 263.303 167.298 265.164 161.495C270.091 151.125 276.22 141.371 283.425 132.431C286.757 128.643 288.85 123.925 289.422 118.911C289.994 113.898 289.017 108.83 286.623 104.388C284.46 101.119 281.735 98.2591 278.574 95.9402C276.686 93.9665 275.17 91.6678 274.1 89.155C269.527 80.8225 264.114 72.9798 257.945 65.7495C255.52 62.1312 252.388 59.0406 248.738 56.6636C245.088 54.2867 240.995 52.6724 236.705 51.9179C229.287 51.6562 221.987 53.8286 215.92 58.1037C209.952 61.9332 203.547 65.0329 196.841 67.3362C193.757 68.3716 190.969 70.1371 188.715 72.4823C186.461 74.8275 184.808 77.683 183.895 80.8052C181.344 86.6953 181.036 93.3149 183.027 99.4168C183.863 101.241 185.13 102.834 186.719 104.059C187.902 104.96 188.971 106.002 189.902 107.16C192.422 110.072 195.856 112.974 198.515 115.673C202.278 119.487 205.623 123.694 208.492 128.22C210.852 131.533 212.277 135.42 212.618 139.474C212.958 143.527 212.202 147.598 210.428 151.258C208.05 157.793 204.174 163.681 199.112 168.45C191.571 174.549 179.162 171.308 170.375 171.333C159.459 170.401 148.468 170.912 137.686 172.852C132.844 173.831 128.381 176.172 124.823 179.599C122.796 182.514 121.978 186.101 122.541 189.607C123.402 195.707 125.623 201.535 129.038 206.663C132.994 212.993 138.666 218.071 145.394 221.306C159.212 230.184 173.713 237.086 188.272 245.478C195.943 250.502 204.957 253.081 214.125 252.877C224.592 252.131 243.484 255.541 242.264 270.233C241.045 284.926 221.575 286.584 209.721 290.48C208.055 291.088 197.971 293.475 202.116 297.142C202.728 297.782 207.297 297.733 208.458 298.55C209.62 299.367 213.022 300.554 215.548 301.412C218.65 302.378 221.317 304.396 223.09 307.119C224.862 309.841 225.628 313.097 225.256 316.325C225.28 317.235 225.176 318.145 224.947 319.027C229.401 319.992 234.481 320.799 240.187 321.45C303.823 328.679 367.725 310.34 417.843 270.465C467.961 230.591 500.192 172.446 507.451 108.813C512.288 67.2231 506.117 25.0922 489.556 -13.3636C485.464 -10.1042 481.842 -6.29397 478.795 -2.04129C474.967 4.97014 471.552 12.1995 468.568 19.6098C465.383 25.5215 463.686 32.4014 460.926 38.5897C458.703 43.9786 455.784 49.0537 452.245 53.6859C450.148 56.0707 446.566 56.4608 443.87 58.0928C441.174 59.7248 439.684 59.783 437.715 61.0416C431.747 64.3539 424.721 69.9414 417.513 69.1193C414.257 68.5846 411.314 66.8655 409.249 64.2924C407.184 61.7192 406.142 58.4736 406.325 55.1792C407.549 47.1778 409.858 39.3807 413.19 32.0037C415.509 26.3366 418.159 20.8103 421.125 15.4532C422.874 11.2864 425.086 7.32909 427.718 3.65553C432.422 -1.41792 435.659 -7.67338 437.084 -14.443C437.922 -20.7526 436.91 -27.1698 434.172 -32.9154C430.768 -42.0884 421.809 -47.5598 414.806 -54.1772C411.735 -57.2655 407.787 -59.6554 404.98 -63.0559C402.174 -66.4565 402.077 -67.6084 400.493 -69.7286C397.539 -73.5206 395.022 -77.6349 392.993 -81.9929C392.282 -84.3995 391.324 -86.7262 390.134 -88.9362C388.509 -90.587 386.622 -91.9585 384.551 -92.9957C378.68 -96.5454 371.874 -98.2365 365.025 -97.8471ZM219.726 100.751C220.718 97.6462 222.576 94.8895 225.082 92.8049C228.795 90.3689 233.224 89.2653 237.646 89.6745C241.005 90.2169 244.076 91.8962 246.345 94.4317C247.922 98.5803 248.621 103.011 248.397 107.444C248.587 109.801 248.316 112.172 247.601 114.426C247.203 116.223 246.696 117.994 246.083 119.73C242.584 126.404 232.29 123.632 226.958 123.366L225.851 125.066C222.963 121.796 220.9 117.883 219.834 113.652C218.768 109.422 218.731 104.998 219.726 100.751ZM269.857 230.369C269.758 231.962 269.234 233.499 268.341 234.821C267.448 236.143 266.218 237.203 264.778 237.89C260.871 239.479 256.569 239.825 252.458 238.881C243.964 237.605 235.779 234.777 228.31 230.536C220.181 226.142 212.557 220.873 205.573 214.822C208.21 220.713 202.371 213.887 200.687 207.648C199.208 203.67 198.794 199.376 199.484 195.189C201.335 190.415 204.222 186.111 207.939 182.589C211.655 179.067 216.108 176.414 220.974 174.823C228.1 173.227 235.537 173.758 242.363 176.35C242.553 176.317 242.748 176.34 242.926 176.414C241.412 174.992 240.198 173.282 239.356 171.383C238.514 169.484 238.062 167.435 238.026 165.359C238.749 162.876 240.299 160.716 242.418 159.235C244.538 157.755 247.1 157.043 249.679 157.219C250.885 157.309 252.06 157.646 253.131 158.208C254.202 158.771 255.146 159.547 255.905 160.489C256.663 161.431 257.221 162.519 257.542 163.685C257.864 164.851 257.943 166.071 257.774 167.269C257.779 169.171 257.306 171.043 256.397 172.714C255.489 174.385 254.175 175.8 252.576 176.83C249.396 177.713 246.018 177.567 242.926 176.414L243.724 177.418C251.095 186.815 257.237 196.985 264.482 206.482C267.031 209.849 268.829 213.723 269.757 217.843C270.684 221.964 270.718 226.235 269.857 230.369ZM426.285 117.239C432.401 119.706 437.395 124.336 440.317 130.248C443.217 139.061 443.447 148.534 440.977 157.476C438.559 166.924 435.593 176.224 432.095 185.328C428.613 195.916 421.758 205.072 412.579 211.396C396.883 220.741 378.365 224.172 360.364 221.07C355.437 220.377 350.859 218.137 347.289 214.672L342.525 208.425C341.614 207.408 339.516 205.8 341.393 210.349C337.582 207.747 333.885 205.157 330.325 202.355C329.688 200.837 329.218 199.253 328.925 197.632C328.091 192.828 327.616 187.969 327.502 183.095C327.29 178.28 327.534 173.457 328.233 168.689C328.426 163.143 329.359 157.647 331.009 152.349C332.9 147.93 335.254 143.724 338.031 139.801C340.759 135.891 342.273 131.614 345.101 127.83C346.683 126.076 348.47 124.518 350.422 123.188C352.765 121.17 355.337 119.434 358.086 118.016C364.112 115.547 370.439 113.89 376.902 113.089C393.406 109.474 410.616 110.92 426.285 117.239ZM348.994 -35.3295C353.365 -31.671 356.197 -26.5007 356.926 -20.8482C357.001 -16.0059 355.986 -11.2089 353.956 -6.81184C352.695 -3.76117 350.585 -1.26376 349.225 1.66145C348.12 4.6704 346.644 7.5298 344.831 10.1733C341.795 15.8235 337.575 20.7516 332.459 24.6204C326.043 27.3057 319.182 28.7674 312.23 28.9301C306.591 30.2732 300.683 29.956 295.221 28.0168C289.636 25.4056 284.452 22.0098 279.828 17.9325C277.218 15.8094 275.148 12.9493 272.426 10.8133C269.703 8.67728 263.508 3.97753 259.324 0.648091C255.773 -5.30081 254.243 -12.2396 254.963 -19.1304C255.319 -23.2341 257.133 -27.0747 260.077 -29.9559C264.442 -35.2812 270.39 -39.0783 277.058 -40.7969C280.439 -41.438 283.921 -41.9536 287.29 -42.482C290.662 -42.8446 294.066 -42.801 297.429 -42.3523C300.582 -41.9926 303.752 -42.7719 306.956 -42.8627C310.369 -42.6046 313.74 -41.9521 317.003 -40.9182C320.059 -40.3985 323.142 -40.0468 326.238 -39.8648C328.715 -39.5822 331.309 -40.3132 334.012 -40.0048C339.309 -39.6702 344.447 -38.0667 348.994 -35.3295Z" fill="#190078"/>
</g>
<g style="mix-blend-mode:multiply" opacity="0.2">
<path d="M146.362 103.792C135.774 108.799 124.101 111.076 112.407 110.415C105.65 109.644 98.0999 105.816 97.371 98.2034C97.8146 91.829 100.264 85.7585 104.369 80.8615C106.11 78.2594 108.221 75.9251 110.636 73.9324C113.51 72.1906 116.756 71.1534 120.108 70.9057C128.5 69.3529 144.919 66.4341 148.969 76.9359C150.55 81.326 151.136 86.0125 150.685 90.6569C150.235 95.3012 148.758 99.7874 146.362 103.792Z" fill="#190078"/>
</g>
<g style="mix-blend-mode:multiply" opacity="0.2">
<path d="M97.3255 126.608C99.4002 123.228 100.971 119.564 101.989 115.731C100.3 115.538 100.103 114.261 98.8029 113.656C97.6117 113.237 96.3413 113.092 95.0863 113.232C94.2758 113.424 93.5385 113.847 92.9635 114.45C92.3886 115.053 92.0007 115.809 91.8468 116.628C91.8141 117.914 91.6679 119.196 91.41 120.457C91.3072 121.358 90.4191 121.142 90.4161 122.169C90.1078 124.872 94.2333 126.711 96.3988 126.73L97.3255 126.608Z" fill="#190078"/>
</g>
</g>
<defs>
<radialGradient id="paint0_radial_16_1877" cx="0" cy="0" r="1" gradientUnits="userSpaceOnUse" gradientTransform="translate(142.394 13.5511) rotate(-83.4926) scale(280.324 280.324)">
<stop stop-color="#C0D6FA"/>
<stop offset="0.17" stop-color="#B5C8F1"/>
<stop offset="0.49" stop-color="#98A3D8"/>
<stop offset="0.92" stop-color="#6A67B1"/>
<stop offset="1" stop-color="#605BA9"/>
</radialGradient>
<radialGradient id="paint1_radial_16_1877" cx="0" cy="0" r="1" gradientUnits="userSpaceOnUse" gradientTransform="translate(149.724 23.0266) rotate(-83.4926) scale(272.136 274.831)">
<stop stop-color="#9095C7"/>
<stop offset="0.2" stop-color="#8289BD"/>
<stop offset="0.57" stop-color="#5D68A1"/>
<stop offset="1" stop-color="#2A3B7C"/>
</radialGradient>
<radialGradient id="paint2_radial_16_1877" cx="0" cy="0" r="1" gradientUnits="userSpaceOnUse" gradientTransform="translate(167.571 33.5482) rotate(-83.4926) scale(259.165 261.81)">
<stop offset="0.28" stop-color="#4A5190"/>
<stop offset="0.46" stop-color="#474C90"/>
<stop offset="0.66" stop-color="#3D3E8E"/>
<stop offset="0.87" stop-color="#2C278C"/>
<stop offset="1" stop-color="#20168B"/>
</radialGradient>
<clipPath id="clip0_16_1877">
<rect width="483" height="483" fill="white" transform="translate(0.186523 294.075) rotate(-83.4926)"/>
</clipPath>
</defs>
</svg>
